<svg width="120" height="120" viewBox="0 0 120 120" fill="none" xmlns="http://www.w3.org/2000/svg">
  <g filter="url(#glow)">
    <polygon points="60,10 82,66 60,108 38,66" fill="#2FB4FF"/>
    <polygon points="60,23 72,62 60,84 48,62" fill="#79D8FF"/>
    <polygon points="60,36 66,58 60,68 54,58" fill="#AFEEFF"/>

    <polygon points="21,38 41,50 35,66 15,56" fill="#1A86CC"/>
    <polygon points="25,46 36,53 33,62 22,56" fill="#4CC3FF"/>

    <polygon points="99,38 79,50 85,66 105,56" fill="#1A86CC"/>
    <polygon points="95,46 84,53 87,62 98,56" fill="#4CC3FF"/>

    <polygon points="22,77 43,75 33,85 12,86" fill="#1A86CC"/>
    <polygon points="28,78 39,77 34,83 23,84" fill="#4CC3FF"/>

    <polygon points="98,77 77,75 87,85 108,86" fill="#1A86CC"/>
    <polygon points="92,78 81,77 86,83 97,84" fill="#4CC3FF"/>
  </g>

  <defs>
    <filter id="glow" x="0" y="0" width="120" height="120" filterUnits="userSpaceOnUse">
      <feGaussianBlur stdDeviation="1.25" result="blur"/>
      <feMerge>
        <feMergeNode in="blur"/>
        <feMergeNode in="SourceGraphic"/>
      </feMerge>
    </filter>
  </defs>
</svg>
